<svg id="Layer_1" data-name="Layer 1" xmlns="http://www.w3.org/2000/svg" xmlns:xlink="http://www.w3.org/1999/xlink" viewBox="0 0 755.29 254.72"><defs><style>.cls-1{fill:url(#linear-gradient);}</style><linearGradient id="linear-gradient" y1="127.36" x2="755.29" y2="127.36" gradientUnits="userSpaceOnUse"><stop offset="0" stop-color="#d6793d"/><stop offset="0.28" stop-color="#c2926c"/><stop offset="0.52" stop-color="#a99f93"/><stop offset="0.75" stop-color="#8097a4"/><stop offset="1" stop-color="#5882a1"/></linearGradient></defs><title>PERFORMANCE LOGO</title><path class="cls-1" d="M365.89,254.72h-.14a3.55,3.55,0,0,1-3.4-3.16L338.26,34.22,318.19,197.38a3.57,3.57,0,0,1-2.48,3c-12.63,3.88-25.56-2.47-32.93-16.2a119.08,119.08,0,0,1-5.86-12.81c-1.6-4-2.65-6.58-4.56-8.39a4.79,4.79,0,0,0-4-1.28c-3.22.37-6.84,3.31-9.93,8.05-6.81,10.43-10.74,15.87-18.77,15.87H3.56a3.56,3.56,0,0,1,0-7.12H239.65c3.83,0,5.86-2,12.81-12.65C258,157.35,263.7,155,267.52,154.6a11.89,11.89,0,0,1,9.75,3.19c3,2.87,4.45,6.41,6.25,10.89a112.76,112.76,0,0,0,5.54,12.1c5.24,9.76,13.84,14.78,22.37,13.29L334.91,3.13A3.56,3.56,0,0,1,338.45,0h0A3.55,3.55,0,0,1,342,3.17L366.85,227.5c3.33-17.05,7.48-37.91,8.5-41.56,2.33-8.33,9.35-8,13.55-7.79l1.11,0,1.69.08c5.12.28,15.76.85,23-3.57,6.25-3.79,10.44-11.76,14.48-19.46,1.22-2.31,2.47-4.69,3.75-6.9,4.31-7.45,9.25-9.56,12.64-10a13.21,13.21,0,0,1,11.11,4c3.26,3.2,5.53,8.55,8.16,14.76,2.1,5,4.49,10.59,7.56,15.21,6,9,20.68,10.85,27.66,7.66,3.55-1.62,6.29-4.55,8.94-7.37,3.32-3.55,6.76-7.22,11.7-7.84,7.41-.93,11.27,3.4,14.08,6.56.65.73,1.27,1.43,1.9,2,3.41,3.3,7.38,5.2,10.91,5.2H751.73a3.56,3.56,0,0,1,0,7.12H547.62c-5.44,0-11.07-2.56-15.87-7.21-.82-.79-1.55-1.62-2.26-2.42-2.74-3.08-4.33-4.67-7.88-4.22-2.38.29-4.7,2.77-7.38,5.64-3,3.17-6.35,6.77-11.18,9-10.57,4.83-28.85,1.43-36.56-10.2-3.43-5.17-5.95-11.12-8.18-16.37s-4.34-10.25-6.58-12.45a6.31,6.31,0,0,0-5.17-2.06c-2.56.34-5.2,2.66-7.44,6.53-1.21,2.08-2.37,4.3-3.6,6.64-4.5,8.56-9.15,17.42-17.09,22.24-9.16,5.56-21.28,4.9-27.11,4.59l-1.57-.07-1.2-.06c-4.82-.23-5.65.11-6.34,2.6-1.33,4.73-9,43.91-12.82,64A3.57,3.57,0,0,1,365.89,254.72Z"/></svg>